<?xml version="1.0" encoding="UTF-8"?>
<svg id="Layer_2" data-name="Layer 2" xmlns="http://www.w3.org/2000/svg" viewBox="0 0 103.79 72.68">
  <defs>
    <style>
      .cls-1 {
        fill: #c9a389;
      }
    </style>
  </defs>
  <g id="Layer_1-2" data-name="Layer 1">
    <path class="cls-1" d="m67.45,0c-3.06,0-6.02.37-8.87,1.09-2.32.59-4.56,1.39-6.69,2.42-2.13-1.04-4.37-1.84-6.69-2.42-2.85-.72-5.81-1.09-8.87-1.09C16.3,0,0,16.3,0,36.34s16.3,36.34,36.34,36.34c3.06,0,6.05-.37,8.9-1.09-4.02-2.53-7.57-5.73-10.5-9.46-13.51-.83-24.24-12.07-24.24-25.79s10.74-24.96,24.24-25.79c.53-.03,1.07-.05,1.6-.05,1.73,0,3.44.16,5.09.51,3.86.77,7.43,2.42,10.47,4.72,1.47,1.09,2.8,2.34,3.97,3.7.35.37.67.77.96,1.17.61.8,1.2,1.62,1.71,2.5.27.43.51.88.75,1.33.32.59.61,1.2.88,1.84.32.77.64,1.57.88,2.37.13.4.24.83.35,1.23.13.51.24,1.04.35,1.57.16.8.29,1.6.35,2.42.05.83.11,1.62.11,2.48s-.05,1.65-.11,2.48-.19,1.63-.35,2.42c-.11.53-.21,1.07-.35,1.57-.11.4-.21.83-.35,1.23-.24.8-.56,1.6-.88,2.37-.27.64-.56,1.25-.88,1.84-.24.45-.48.91-.75,1.33-.51.88-1.09,1.71-1.71,2.5-.29.4-.61.8-.96,1.17-1.17,1.36-2.5,2.61-3.97,3.7-1.47-1.09-2.8-2.34-3.97-3.7-3.94-4.53-6.34-10.44-6.34-16.92s2.4-12.39,6.34-16.92c-3.04-2.08-6.63-3.36-10.5-3.57-4,5.83-6.34,12.89-6.34,20.49s2.34,14.65,6.34,20.49c1.2,1.73,2.53,3.36,4,4.85,2.98,3.09,6.53,5.65,10.47,7.49,2.1,1.01,4.34,1.84,6.66,2.42,2.85.72,5.83,1.09,8.9,1.09,7.67,0,15.03-2.37,21.23-6.85l-6.15-8.53c-3.97,2.88-8.6,4.53-13.48,4.82-.53.03-1.07.05-1.6.05-1.73,0-3.44-.16-5.09-.51,1.47-1.49,2.8-3.12,4-4.85,4-5.83,6.34-12.89,6.34-20.49s-2.34-14.65-6.34-20.49c-1.2-1.73-2.53-3.36-4-4.85,1.65-.35,3.36-.51,5.09-.51.53,0,1.07.03,1.6.05,13.48.83,24.24,12.07,24.24,25.79v35.67h10.5v-35.67C103.79,16.3,87.49,0,67.45,0Z"/>
  </g>
</svg>